# xmcd CD database file
#
# Track frame offsets:
#	150
#	23355
#	43975
#	66285
#	89555
#	118540
#	141190
#	162942
#	184902
#	210885
#	231372
#	252152
#	274637
#	295700
#
# Disc length: 4239 seconds
#
# Revision: 0
# Processed by: cddbd v1.5.2PL0 Copyright (c) Steve Scherf et al.
# Submitted via: CDex 1.51
#
DISCID=c5108d0e
DTITLE=Frankie Ruiz - Exitos
DYEAR=1900
DGENRE=Salsa
TTITLE0=Mirandote
TTITLE1=Mi libertad
TTITLE2=Bailando
TTITLE3=Como lo hacen
TTITLE4=La rueda
TTITLE5=Tu con el
TTITLE6=Desnudate mujer
TTITLE7=Primero fui yo
TTITLE8=Esta cobardia
TTITLE9=Quiero llenarte
TTITLE10=Y no puedo
TTITLE11=La cura
TTITLE12=Dile a el
TTITLE13=Tu me vuelves loco
EXTD=
EXTT0=
EXTT1=
EXTT2=
EXTT3=
EXTT4=
EXTT5=
EXTT6=
EXTT7=
EXTT8=
EXTT9=
EXTT10=
EXTT11=
EXTT12=
EXTT13=
PLAYORDER=
